# Blender 4.4.3
# www.blender.org
mtllib door.mtl
o Cube
v 0.055348 0.901780 -0.468982
v 0.055348 -0.901780 -0.468982
v 0.055348 0.901780 0.468982
v 0.055348 -0.901780 0.468982
v -0.079624 1.119161 -0.581986
v -0.079624 -1.119161 -0.581986
v -0.079624 1.119161 0.582083
v -0.083231 -1.119161 0.582033
v 0.055348 0.159138 -0.468982
v -0.083231 0.000000 0.582033
v 0.055348 0.159138 0.468982
v -0.079624 0.000000 -0.581986
v -0.083231 -1.119161 -0.000002
v 0.055348 0.901780 -0.082762
v -0.079624 1.119161 0.000049
v 0.055348 -0.901780 -0.082762
v 0.055348 0.159138 -0.082762
v -0.077462 0.000000 0.000000
v 0.083805 1.119161 -0.581986
v 0.055348 -0.159138 -0.468982
v 0.055348 0.901780 0.082762
v 0.055348 0.159138 0.082762
v 0.083805 1.119161 0.582083
v 0.055348 -0.159138 0.468982
v 0.055348 -0.159138 -0.082762
v 0.083805 -1.119161 -0.581986
v 0.055348 -0.901780 0.082762
v 0.055348 -0.159138 0.082762
v 0.080199 -1.119161 0.582033
v 0.077462 1.044415 0.008582
v 0.077462 1.044415 -0.008582
v 0.083805 1.119161 -0.009004
v 0.082534 1.119161 0.000049
v 0.083805 1.119161 0.009102
v 0.077462 0.016502 -0.543162
v 0.077462 -0.016502 -0.543162
v 0.083805 -0.017408 -0.581986
v 0.082534 0.000000 -0.581986
v 0.083805 0.017408 -0.581986
v 0.077462 -0.016502 0.543162
v 0.077462 0.016502 0.543162
v 0.080199 0.017408 0.582033
v 0.078928 0.000000 0.582033
v 0.080199 -0.017408 0.582033
v 0.077462 -0.016502 0.008582
v 0.077462 -0.016502 -0.008582
v 0.077462 0.016502 -0.008582
v 0.077462 0.016502 0.008582
v 0.077462 -1.044415 -0.008582
v 0.077462 -1.044415 0.008582
v 0.080199 -1.119161 0.009052
v 0.078928 -1.119161 -0.000002
v 0.080199 -1.119161 -0.009055
v -0.101884 -1.191044 -0.000003
v -0.101884 -1.191044 0.619414
v 0.093261 -1.191044 -0.619368
v -0.097671 -1.191044 -0.619368
v -0.101884 0.000000 0.619414
v -0.097671 1.191044 0.619468
v -0.097671 0.000000 -0.619368
v 0.093261 1.191044 0.619468
v 0.089048 -1.191044 0.619414
v -0.097671 1.191044 0.000050
v -0.097671 1.191044 -0.619368
v 0.093261 1.191044 -0.619368
v 0.093261 1.191044 -0.009585
v 0.091777 1.191044 0.000050
v 0.093261 1.191044 0.009685
v 0.093261 -0.018526 -0.619368
v 0.091777 0.000000 -0.619368
v 0.093261 0.018526 -0.619368
v 0.089048 0.018526 0.619414
v 0.087563 0.000000 0.619414
v 0.089048 -0.018526 0.619414
v 0.089048 -1.191044 0.009631
v 0.087563 -1.191044 -0.000003
v 0.089048 -1.191044 -0.009638
vn 0.9917 -0.1286 -0.0035
vn 0.9915 -0.1298 -0.0012
vn 0.9921 -0.1176 0.0439
vn 0.9980 -0.0634 -0.0011
vn 0.9882 0.1532 -0.0000
vn -1.0000 0.0012 -0.0023
vn -1.0000 -0.0002 -0.0015
vn -1.0000 -0.0010 0.0019
vn -1.0000 0.0008 0.0003
vn 0.9981 0.0616 -0.0000
vn 0.9952 0.0909 -0.0375
vn 0.9914 0.1214 -0.0483
vn 0.9823 0.1189 -0.1449
vn 1.0000 -0.0000 -0.0000
vn 0.9882 -0.1532 -0.0000
vn 0.9702 0.0018 0.2421
vn 0.9926 0.0006 0.1214
vn 0.9747 -0.0224 0.2222
vn 0.9697 0.0006 0.2441
vn -1.0000 0.0026 -0.0031
vn -1.0000 0.0026 -0.0012
vn 0.9744 0.0011 -0.2249
vn 0.9729 -0.0018 -0.2313
vn 0.9841 -0.0207 -0.1762
vn 0.9964 0.0003 -0.0847
vn -1.0000 0.0026 -0.0050
vn -1.0000 0.0016 -0.0050
vn 0.9937 0.1116 0.0059
vn 0.9930 0.1184 0.0021
vn 0.9991 0.0429 0.0018
vn -1.0000 0.0006 -0.0050
vn 0.9583 -0.0000 -0.2857
vn -0.9699 -0.2435 -0.0000
vn 0.9583 -0.0000 0.2857
vn 0.9775 -0.0030 -0.2111
vn 0.9966 -0.0009 -0.0823
vn 0.9847 0.0193 -0.1729
vn 0.9747 -0.0011 -0.2235
vn 0.9930 -0.0000 -0.1179
vn 0.9713 0.0745 -0.2260
vn 0.9731 0.0247 -0.2291
vn 0.9695 -0.0245 0.2440
vn 0.9695 -0.0000 0.2452
vn 0.9723 -0.0267 -0.2320
vn 0.9713 -0.0745 -0.2260
vn 0.9702 -0.0018 0.2421
vn 0.9697 -0.0006 0.2441
vn 0.9747 0.0224 0.2222
vn 0.9926 -0.0006 0.1214
vn -0.9682 0.2500 -0.0032
vn -0.9685 0.2489 -0.0063
vn -0.9682 0.2500 -0.0031
vn 0.9929 0.1192 -0.0022
vn 0.9990 0.0442 -0.0006
vn 0.9949 0.0926 0.0403
vn 0.9924 0.1227 0.0035
vn 0.9915 -0.1304 -0.0000
vn 0.9904 -0.1296 0.0481
vn 0.9980 -0.0634 0.0011
vn 0.9952 -0.0982 -0.0000
vn 0.9921 -0.1176 -0.0439
vn 0.9825 -0.0000 0.1865
vn 0.9917 -0.1286 0.0035
vn 0.9915 -0.1298 0.0012
vn -0.0000 -1.0000 -0.0000
vn -0.0000 -0.0000 -1.0000
vn -0.0000 1.0000 -0.0000
vn -0.0000 -0.0000 1.0000
vn 0.9695 0.0245 0.2440
vn 0.9704 -0.0000 0.2416
vn 0.9823 0.1189 0.1449
vn 0.9910 0.1230 0.0523
vn -0.9679 0.2512 -0.0000
vn 0.9922 0.1246 0.0066
vn 0.9731 -0.0000 -0.2304
vn -0.8957 0.0016 -0.4447
vn -0.8948 -0.0000 -0.4465
vn -0.8956 0.0015 -0.4448
vn -0.9005 -0.0000 0.4348
vn -0.8965 0.0031 -0.4430
vn 0.9917 -0.1284 -0.0000
vn 0.9925 0.1222 -0.0000
vn 0.9904 -0.1296 -0.0481
vn 0.9721 -0.0033 -0.2347
vt 0.606250 0.606250
vt 0.606250 0.518750
vt 0.625000 0.500000
vt 0.625000 0.623056
vt 0.623056 0.623056
vt 0.518750 0.643750
vt 0.518750 0.731250
vt 0.501944 0.748056
vt 0.501944 0.626944
vt 0.500000 0.125000
vt 0.625000 0.125000
vt 0.625000 0.250000
vt 0.500000 0.250000
vt 0.373056 0.625000
vt 0.375000 0.626944
vt 0.606250 0.643750
vt 0.606250 0.731250
vt 0.481250 0.606250
vt 0.481250 0.518750
vt 0.498056 0.501944
vt 0.498056 0.623056
vt 0.518750 0.518750
vt 0.501944 0.501944
vt 0.501944 0.500000
vt 0.393750 0.643750
vt 0.481250 0.643750
vt 0.481250 0.731250
vt 0.393750 0.731250
vt 0.375000 0.125000
vt 0.375000 0.250000
vt 0.625000 0.750000
vt 0.501944 0.750000
vt 0.375000 0.000000
vt 0.500000 0.000000
vt 0.393750 0.518750
vt 0.393750 0.606250
vt 0.518750 0.606250
vt 0.375000 0.750000
vt 0.376944 0.626944
vt 0.625000 0.000000
vt 0.501944 0.623056
vt 0.623056 0.626944
vt 0.498056 0.748056
vt 0.498056 0.750000
vt 0.500000 0.751944
vt 0.498056 0.626944
vt 0.375000 0.500000
vt 0.498056 0.500000
vt 0.376944 0.623056
vt 0.375000 0.623056
vt 0.623056 0.623056
vt 0.626944 0.625000
vt 0.625000 0.626944
vt 0.498056 0.501944
vt 0.500000 0.498056
vt 0.501944 0.748056
vt 0.376944 0.626944
vt 0.125000 0.500000
vt 0.125000 0.625000
vt 0.875000 0.625000
vt 0.875000 0.750000
vt 0.875000 0.500000
vt 0.500000 1.000000
vt 0.375000 1.000000
vt 0.125000 0.750000
vt 0.625000 1.000000
s 1
usemtl Material
f 14/1/1 1/2/1 19/3/2 32/4/3 31/5/4
f 22/6/5 11/7/5 41/8/5 48/9/5
f 18/10/6 15/11/7 5/12/8 12/13/9
f 52/14/10 51/15/11 75/15/12 76/14/13
f 22/6/14 21/16/14 3/17/14 11/7/14
f 25/18/15 20/19/15 36/20/15 46/21/15
f 1/2/16 9/22/16 35/23/17 39/24/18 19/3/19
f 27/25/14 28/26/14 24/27/14 4/28/14
f 13/29/20 18/10/6 12/13/9 6/30/21
f 11/7/22 3/17/22 23/31/23 42/32/24 41/8/25
f 8/33/26 10/34/27 18/10/6 13/29/20
f 2/35/14 20/19/14 25/18/14 16/36/14
f 9/22/14 1/2/14 14/1/14 17/37/14
f 27/25/28 4/28/28 29/38/29 51/15/11 50/39/30
f 10/34/27 7/40/31 15/11/7 18/10/6
f 17/37/32 14/1/32 31/5/32 47/41/32
f 5/12/33 15/11/33 63/11/33 64/12/33
f 21/16/34 22/6/34 48/9/34 30/42/34
f 4/28/35 24/27/35 40/43/36 44/44/37 29/38/38
f 44/44/37 43/45/39 73/45/40 74/44/41
f 19/3/19 39/24/18 71/24/42 65/3/43
f 24/27/15 28/26/15 45/46/15 40/43/15
f 43/45/39 42/32/24 72/32/44 73/45/45
f 20/19/46 2/35/46 26/47/47 37/48/48 36/20/49
f 15/11/33 7/40/33 59/40/33 63/11/33
f 13/29/50 6/30/51 57/30/51 54/29/52
f 9/22/5 17/37/5 47/41/5 35/23/5
f 2/35/53 16/36/53 49/49/54 53/50/55 26/47/56
f 32/4/3 19/3/2 65/3/57 66/4/58
f 28/26/34 27/25/34 50/39/34 45/46/34
f 16/36/32 25/18/32 46/21/32 49/49/32
f 30/42/59 31/51/4 32/4/3 33/52/60 34/53/61
f 35/23/17 36/54/49 37/48/48 38/55/62 39/24/18
f 40/43/36 41/56/25 42/32/24 43/45/39 44/44/37
f 45/46/14 46/21/14 47/41/14 48/9/14
f 49/49/54 50/57/30 51/15/11 52/14/10 53/50/55
f 48/9/14 41/8/25 40/43/36 45/46/14
f 35/23/17 47/41/14 46/21/14 36/20/49
f 45/46/14 50/39/30 49/49/54 46/21/14
f 30/42/59 48/9/14 47/41/14 31/5/4
f 3/17/63 21/16/63 30/42/59 34/53/61 23/31/64
f 57/58/65 56/47/65 77/50/65 76/14/65 54/59/65
f 60/13/66 64/12/66 65/3/66 71/24/66 70/55/66
f 68/53/67 67/52/67 63/60/67 59/61/67 61/31/67
f 65/3/67 64/62/67 63/60/67 67/52/67 66/4/67
f 62/38/68 74/44/68 73/45/68 58/63/68 55/64/68
f 57/30/66 60/13/66 70/55/66 69/48/66 56/47/66
f 54/59/65 76/14/65 75/15/65 62/38/65 55/65/65
f 73/45/68 72/32/68 61/31/68 59/66/68 58/63/68
f 38/55/62 37/48/48 69/48/69 70/55/70
f 53/50/55 52/14/10 76/14/71 77/50/72
f 8/33/73 13/29/50 54/29/52 55/33/73
f 26/47/56 53/50/55 77/50/72 56/47/74
f 29/38/38 44/44/37 74/44/41 62/38/75
f 10/34/76 8/33/77 55/33/77 58/34/78
f 39/24/18 38/55/62 70/55/70 71/24/42
f 12/13/79 5/12/79 64/12/79 60/13/79
f 37/48/48 26/47/47 56/47/43 69/48/69
f 7/40/80 10/34/76 58/34/78 59/40/80
f 33/52/60 32/4/3 66/4/58 67/52/81
f 51/15/11 29/38/29 62/38/82 75/15/12
f 23/31/64 34/53/61 68/53/83 61/31/57
f 42/32/24 23/31/23 61/31/84 72/32/44
f 6/30/79 12/13/79 60/13/79 57/30/79
f 34/53/61 33/52/60 67/52/81 68/53/83
o Icosphere
v 0.156715 -0.146797 -0.462803
v 0.200218 -0.096182 -0.414665
v 0.140099 -0.096182 -0.384914
v 0.102942 -0.096182 -0.462803
v 0.140099 -0.096182 -0.540691
v 0.200218 -0.096182 -0.510940
v 0.173332 -0.014284 -0.384914
v 0.113212 -0.014284 -0.414665
v 0.113212 -0.014284 -0.510940
v 0.173332 -0.014284 -0.540691
v 0.210488 -0.014285 -0.462803
v 0.156715 0.036330 -0.462803
v 0.146948 -0.133122 -0.417021
v 0.182286 -0.133122 -0.434508
v 0.172519 -0.103372 -0.388727
v 0.207856 -0.103372 -0.462803
v 0.182286 -0.133122 -0.491097
v 0.125108 -0.133122 -0.462803
v 0.115341 -0.103372 -0.417021
v 0.146948 -0.133122 -0.508584
v 0.115341 -0.103372 -0.508584
v 0.172519 -0.103372 -0.536879
v 0.213893 -0.055233 -0.434508
v 0.213893 -0.055233 -0.491097
v 0.156715 -0.055233 -0.371239
v 0.192053 -0.055233 -0.388726
v 0.099538 -0.055233 -0.434508
v 0.121378 -0.055233 -0.388726
v 0.121378 -0.055233 -0.536879
v 0.099538 -0.055233 -0.491097
v 0.192053 -0.055233 -0.536879
v 0.156715 -0.055233 -0.554366
v 0.198089 -0.007095 -0.417021
v 0.140912 -0.007095 -0.388727
v 0.105574 -0.007095 -0.462803
v 0.140912 -0.007095 -0.536879
v 0.198089 -0.007095 -0.508584
v 0.166482 0.022656 -0.417021
v 0.188322 0.022655 -0.462803
v 0.131145 0.022656 -0.434508
v 0.131145 0.022656 -0.491097
v 0.166482 0.022656 -0.508584
vn 0.1549 -0.9371 0.3129
vn 0.8310 -0.5156 0.2089
vn -0.3901 -0.9017 0.1861
vn -0.3901 -0.9017 -0.1861
vn 0.1549 -0.9371 -0.3129
vn 0.9555 -0.2290 0.1858
vn 0.0377 -0.3303 0.9431
vn -0.9477 -0.2311 0.2204
vn -0.7304 -0.2757 -0.6249
vn 0.6938 -0.2815 -0.6629
vn 0.8987 -0.0924 0.4287
vn -0.4404 -0.1185 0.8899
vn -0.9966 -0.0829 -0.0000
vn -0.4404 -0.1185 -0.8899
vn 0.8987 -0.0924 -0.4287
vn 0.5637 0.5989 0.5688
vn -0.6312 0.5819 0.5128
vn -0.8310 0.5156 -0.2089
vn 0.0586 0.6611 -0.7480
vn 0.8478 0.5087 -0.1497
vn 0.3901 0.9017 -0.1861
vn 0.6515 0.6921 -0.3108
vn 0.5637 0.5989 -0.5688
vn -0.1549 0.9371 -0.3129
vn -0.2793 0.7768 -0.5644
vn -0.6312 0.5819 -0.5128
vn -0.4716 0.8818 -0.0000
vn -0.7584 0.6518 -0.0000
vn -0.8310 0.5156 0.2089
vn -0.1549 0.9371 0.3129
vn -0.2793 0.7768 0.5644
vn 0.0586 0.6611 0.7480
vn 0.3901 0.9017 0.1861
vn 0.6515 0.6921 0.3108
vn 0.8478 0.5087 0.1497
vn 0.9477 0.2311 -0.2204
vn 0.8939 0.1386 -0.4264
vn 0.7304 0.2757 -0.6249
vn -0.0377 0.3303 -0.9431
vn -0.4365 0.1771 -0.8821
vn -0.6938 0.2815 -0.6629
vn -0.9555 0.2290 -0.1858
vn -0.9922 0.1244 -0.0000
vn -0.9555 0.2290 0.1858
vn -0.6938 0.2815 0.6629
vn -0.4365 0.1771 0.8821
vn -0.0377 0.3303 0.9431
vn 0.7304 0.2757 0.6249
vn 0.8939 0.1386 0.4264
vn 0.9477 0.2311 0.2204
vn 0.4404 0.1185 -0.8899
vn 0.4365 -0.1771 -0.8821
vn 0.0377 -0.3303 -0.9431
vn -0.8987 0.0924 -0.4287
vn -0.8939 -0.1386 -0.4264
vn -0.9477 -0.2311 -0.2204
vn -0.8987 0.0924 0.4287
vn -0.8939 -0.1386 0.4264
vn -0.7304 -0.2757 0.6249
vn 0.4404 0.1185 0.8899
vn 0.4365 -0.1771 0.8821
vn 0.6938 -0.2815 0.6629
vn 0.9966 0.0829 -0.0000
vn 0.9922 -0.1244 -0.0000
vn 0.9555 -0.2290 -0.1858
vn 0.6312 -0.5819 -0.5128
vn 0.2793 -0.7768 -0.5644
vn -0.0586 -0.6611 -0.7480
vn -0.5637 -0.5989 -0.5688
vn -0.6515 -0.6921 -0.3108
vn -0.8478 -0.5087 -0.1497
vn -0.8478 -0.5087 0.1497
vn -0.6515 -0.6921 0.3108
vn -0.5637 -0.5989 0.5688
vn 0.8310 -0.5156 -0.2089
vn 0.7584 -0.6518 -0.0000
vn 0.4716 -0.8818 -0.0000
vn -0.0586 -0.6611 0.7480
vn 0.2793 -0.7768 0.5644
vn 0.6312 -0.5819 0.5128
vt 0.181819 0.000000
vt 0.227273 0.078731
vt 0.136365 0.078731
vt 0.272728 0.157461
vt 0.318182 0.078731
vt 0.363637 0.157461
vt 0.909091 0.000000
vt 0.954545 0.078731
vt 0.863636 0.078731
vt 0.727273 0.000000
vt 0.772727 0.078731
vt 0.681818 0.078731
vt 0.545455 0.000000
vt 0.590909 0.078731
vt 0.500000 0.078731
vt 0.318182 0.236191
vt 0.090910 0.157461
vt 0.181819 0.157461
vt 0.136365 0.236191
vt 0.818182 0.157461
vt 0.909091 0.157461
vt 0.863636 0.236191
vt 0.636364 0.157461
vt 0.727273 0.157461
vt 0.681818 0.236191
vt 0.454546 0.157461
vt 0.545455 0.157461
vt 0.500000 0.236191
vt 0.227273 0.236191
vt 0.045455 0.236191
vt 0.772727 0.236191
vt 0.590909 0.236191
vt 0.409092 0.236191
vt 0.181819 0.314921
vt 0.272728 0.314921
vt 0.227273 0.393651
vt 0.000000 0.314921
vt 0.090910 0.314921
vt 0.045455 0.393651
vt 0.727273 0.314921
vt 0.818182 0.314921
vt 0.772727 0.393651
vt 0.545455 0.314921
vt 0.636364 0.314921
vt 0.590909 0.393651
vt 0.363637 0.314921
vt 0.454546 0.314921
vt 0.409092 0.393651
vt 0.500000 0.393651
vt 0.454546 0.472382
vt 0.681818 0.393651
vt 0.636364 0.472382
vt 0.863636 0.393651
vt 0.818182 0.472382
vt 0.909091 0.314921
vt 0.136365 0.393651
vt 0.090910 0.472382
vt 0.318182 0.393651
vt 0.272728 0.472382
vt 0.954545 0.236191
vt 1.000000 0.157461
vt 0.409092 0.078731
vt 0.363637 0.000000
s 0
usemtl Material.001
f 78/67/85 91/68/85 90/69/85
f 79/70/86 91/71/86 93/72/86
f 78/73/87 90/74/87 95/75/87
f 78/76/88 95/77/88 97/78/88
f 78/79/89 97/80/89 94/81/89
f 79/70/90 93/72/90 100/82/90
f 80/83/91 92/84/91 102/85/91
f 81/86/92 96/87/92 104/88/92
f 82/89/93 98/90/93 106/91/93
f 83/92/94 99/93/94 108/94/94
f 79/70/95 100/82/95 103/95/95
f 80/83/96 102/85/96 105/96/96
f 81/86/97 104/88/97 107/97/97
f 82/89/98 106/91/98 109/98/98
f 83/92/99 108/94/99 101/99/99
f 84/100/100 110/101/100 115/102/100
f 85/103/101 111/104/101 117/105/101
f 86/106/102 112/107/102 118/108/102
f 87/109/103 113/110/103 119/111/103
f 88/112/104 114/113/104 116/114/104
f 116/114/105 119/115/105 89/116/105
f 116/114/106 114/113/106 119/115/106
f 114/113/107 87/109/107 119/115/107
f 119/111/108 118/117/108 89/118/108
f 119/111/109 113/110/109 118/117/109
f 113/110/110 86/106/110 118/117/110
f 118/108/111 117/119/111 89/120/111
f 118/108/112 112/107/112 117/119/112
f 112/107/113 85/121/113 117/119/113
f 117/105/114 115/122/114 89/123/114
f 117/105/115 111/104/115 115/122/115
f 111/104/116 84/100/116 115/122/116
f 115/102/117 116/124/117 89/125/117
f 115/102/118 110/101/118 116/124/118
f 110/101/119 88/112/119 116/124/119
f 101/99/120 114/113/120 88/112/120
f 101/99/121 108/94/121 114/113/121
f 108/94/122 87/109/122 114/113/122
f 109/98/123 113/110/123 87/109/123
f 109/98/124 106/91/124 113/110/124
f 106/91/125 86/106/125 113/110/125
f 107/97/126 112/107/126 86/106/126
f 107/97/127 104/88/127 112/107/127
f 104/88/128 85/121/128 112/107/128
f 105/96/129 111/104/129 85/103/129
f 105/96/130 102/85/130 111/104/130
f 102/85/131 84/100/131 111/104/131
f 103/95/132 110/101/132 84/100/132
f 103/95/133 100/82/133 110/101/133
f 100/82/134 88/112/134 110/101/134
f 108/94/135 109/98/135 87/109/135
f 108/94/136 99/93/136 109/98/136
f 99/93/137 82/89/137 109/98/137
f 106/91/138 107/97/138 86/106/138
f 106/91/139 98/90/139 107/97/139
f 98/90/140 81/86/140 107/97/140
f 104/88/141 105/126/141 85/121/141
f 104/88/142 96/87/142 105/126/142
f 96/87/143 80/127/143 105/126/143
f 102/85/144 103/95/144 84/100/144
f 102/85/145 92/84/145 103/95/145
f 92/84/146 79/70/146 103/95/146
f 100/82/147 101/99/147 88/112/147
f 100/82/148 93/72/148 101/99/148
f 93/72/149 83/92/149 101/99/149
f 94/81/150 99/93/150 83/92/150
f 94/81/151 97/80/151 99/93/151
f 97/80/152 82/89/152 99/93/152
f 97/78/153 98/90/153 82/89/153
f 97/78/154 95/77/154 98/90/154
f 95/77/155 81/86/155 98/90/155
f 95/75/156 96/87/156 81/86/156
f 95/75/157 90/74/157 96/87/157
f 90/74/158 80/127/158 96/87/158
f 93/72/159 94/128/159 83/92/159
f 93/72/160 91/71/160 94/128/160
f 91/71/161 78/129/161 94/128/161
f 90/69/162 92/84/162 80/83/162
f 90/69/163 91/68/163 92/84/163
f 91/68/164 79/70/164 92/84/164
o Cylinder
v 0.070098 -0.054015 -0.508570
v 0.135742 -0.054015 -0.508570
v 0.070098 -0.060419 -0.507939
v 0.135742 -0.060419 -0.507939
v 0.070098 -0.066576 -0.506071
v 0.135742 -0.066576 -0.506071
v 0.070098 -0.072250 -0.503038
v 0.135742 -0.072250 -0.503038
v 0.070098 -0.077224 -0.498957
v 0.135742 -0.077224 -0.498957
v 0.070098 -0.081306 -0.493983
v 0.135742 -0.081306 -0.493983
v 0.070098 -0.084339 -0.488308
v 0.135742 -0.084339 -0.488308
v 0.070098 -0.086207 -0.482151
v 0.135742 -0.086207 -0.482151
v 0.070098 -0.086837 -0.475748
v 0.135742 -0.086837 -0.475748
v 0.070098 -0.086207 -0.469345
v 0.135742 -0.086207 -0.469345
v 0.070098 -0.084339 -0.463188
v 0.135742 -0.084339 -0.463188
v 0.070098 -0.081306 -0.457513
v 0.135742 -0.081306 -0.457513
v 0.070098 -0.077224 -0.452539
v 0.135742 -0.077224 -0.452539
v 0.070098 -0.072250 -0.448458
v 0.135742 -0.072250 -0.448458
v 0.070098 -0.066576 -0.445425
v 0.135742 -0.066576 -0.445425
v 0.070098 -0.060419 -0.443557
v 0.135742 -0.060419 -0.443557
v 0.070098 -0.054015 -0.442926
v 0.135742 -0.054015 -0.442926
v 0.070098 -0.047612 -0.443557
v 0.135742 -0.047612 -0.443557
v 0.070098 -0.041455 -0.445425
v 0.135742 -0.041455 -0.445425
v 0.070098 -0.035781 -0.448458
v 0.135742 -0.035781 -0.448458
v 0.070098 -0.030807 -0.452539
v 0.135742 -0.030807 -0.452539
v 0.070098 -0.026725 -0.457513
v 0.135742 -0.026725 -0.457513
v 0.070098 -0.023692 -0.463188
v 0.135742 -0.023692 -0.463188
v 0.070098 -0.021824 -0.469345
v 0.135742 -0.021824 -0.469345
v 0.070098 -0.021194 -0.475748
v 0.135742 -0.021194 -0.475748
v 0.070098 -0.021824 -0.482151
v 0.135742 -0.021824 -0.482151
v 0.070098 -0.023692 -0.488308
v 0.135742 -0.023692 -0.488308
v 0.070098 -0.026725 -0.493983
v 0.135742 -0.026725 -0.493983
v 0.070098 -0.030807 -0.498957
v 0.135742 -0.030807 -0.498957
v 0.070098 -0.035781 -0.503038
v 0.135742 -0.035781 -0.503038
v 0.070098 -0.041455 -0.506071
v 0.135742 -0.041455 -0.506071
v 0.070098 -0.047612 -0.507939
v 0.135742 -0.047612 -0.507939
vn -0.0000 -0.0000 -1.0000
vn -0.0000 -0.1951 -0.9808
vn -0.0000 -0.3827 -0.9239
vn -0.0000 -0.5556 -0.8315
vn -0.0000 -0.7071 -0.7071
vn -0.0000 -0.8315 -0.5556
vn -0.0000 -0.9239 -0.3827
vn -0.0000 -0.9808 -0.1951
vn -0.0000 -1.0000 -0.0000
vn -0.0000 -0.9808 0.1951
vn -0.0000 -0.9239 0.3827
vn -0.0000 -0.8315 0.5556
vn -0.0000 -0.7071 0.7071
vn -0.0000 -0.5556 0.8315
vn -0.0000 -0.3827 0.9239
vn -0.0000 -0.1951 0.9808
vn -0.0000 -0.0000 1.0000
vn -0.0000 0.1951 0.9808
vn -0.0000 0.3827 0.9239
vn -0.0000 0.5556 0.8315
vn -0.0000 0.7071 0.7071
vn -0.0000 0.8315 0.5556
vn -0.0000 0.9239 0.3827
vn -0.0000 0.9808 0.1951
vn -0.0000 1.0000 -0.0000
vn -0.0000 0.9808 -0.1951
vn -0.0000 0.9239 -0.3827
vn -0.0000 0.8315 -0.5556
vn -0.0000 0.7071 -0.7071
vn -0.0000 0.5556 -0.8315
vn -0.0000 0.3827 -0.9239
vn 1.0000 -0.0000 -0.0000
vn -0.0000 0.1951 -0.9808
vn -1.0000 -0.0000 -0.0000
vt 1.000000 0.500000
vt 1.000000 1.000000
vt 0.968750 1.000000
vt 0.968750 0.500000
vt 0.937500 1.000000
vt 0.937500 0.500000
vt 0.906250 1.000000
vt 0.906250 0.500000
vt 0.875000 1.000000
vt 0.875000 0.500000
vt 0.843750 1.000000
vt 0.843750 0.500000
vt 0.812500 1.000000
vt 0.812500 0.500000
vt 0.781250 1.000000
vt 0.781250 0.500000
vt 0.750000 1.000000
vt 0.750000 0.500000
vt 0.718750 1.000000
vt 0.718750 0.500000
vt 0.687500 1.000000
vt 0.687500 0.500000
vt 0.656250 1.000000
vt 0.656250 0.500000
vt 0.625000 1.000000
vt 0.625000 0.500000
vt 0.593750 1.000000
vt 0.593750 0.500000
vt 0.562500 1.000000
vt 0.562500 0.500000
vt 0.531250 1.000000
vt 0.531250 0.500000
vt 0.500000 1.000000
vt 0.500000 0.500000
vt 0.468750 1.000000
vt 0.468750 0.500000
vt 0.437500 1.000000
vt 0.437500 0.500000
vt 0.406250 1.000000
vt 0.406250 0.500000
vt 0.375000 1.000000
vt 0.375000 0.500000
vt 0.343750 1.000000
vt 0.343750 0.500000
vt 0.312500 1.000000
vt 0.312500 0.500000
vt 0.281250 1.000000
vt 0.281250 0.500000
vt 0.250000 1.000000
vt 0.250000 0.500000
vt 0.218750 1.000000
vt 0.218750 0.500000
vt 0.187500 1.000000
vt 0.187500 0.500000
vt 0.156250 1.000000
vt 0.156250 0.500000
vt 0.125000 1.000000
vt 0.125000 0.500000
vt 0.093750 1.000000
vt 0.093750 0.500000
vt 0.062500 1.000000
vt 0.062500 0.500000
vt 0.296822 0.485388
vt 0.250000 0.490000
vt 0.203178 0.485388
vt 0.158156 0.471731
vt 0.116663 0.449553
vt 0.080294 0.419706
vt 0.050447 0.383337
vt 0.028269 0.341844
vt 0.014612 0.296822
vt 0.010000 0.250000
vt 0.014612 0.203178
vt 0.028269 0.158156
vt 0.050447 0.116663
vt 0.080294 0.080294
vt 0.116663 0.050447
vt 0.158156 0.028269
vt 0.203178 0.014612
vt 0.250000 0.010000
vt 0.296822 0.014612
vt 0.341844 0.028269
vt 0.383337 0.050447
vt 0.419706 0.080294
vt 0.449553 0.116663
vt 0.471731 0.158156
vt 0.485388 0.203178
vt 0.490000 0.250000
vt 0.485388 0.296822
vt 0.471731 0.341844
vt 0.449553 0.383337
vt 0.419706 0.419706
vt 0.383337 0.449553
vt 0.341844 0.471731
vt 0.031250 1.000000
vt 0.031250 0.500000
vt 0.000000 1.000000
vt 0.000000 0.500000
vt 0.750000 0.490000
vt 0.796822 0.485388
vt 0.841844 0.471731
vt 0.883337 0.449553
vt 0.919706 0.419706
vt 0.949553 0.383337
vt 0.971731 0.341844
vt 0.985388 0.296822
vt 0.990000 0.250000
vt 0.985388 0.203178
vt 0.971731 0.158156
vt 0.949553 0.116663
vt 0.919706 0.080294
vt 0.883337 0.050447
vt 0.841844 0.028269
vt 0.796822 0.014612
vt 0.750000 0.010000
vt 0.703178 0.014612
vt 0.658156 0.028269
vt 0.616663 0.050447
vt 0.580294 0.080294
vt 0.550447 0.116663
vt 0.528269 0.158156
vt 0.514612 0.203178
vt 0.510000 0.250000
vt 0.514612 0.296822
vt 0.528269 0.341844
vt 0.550447 0.383337
vt 0.580294 0.419706
vt 0.616663 0.449553
vt 0.658156 0.471731
vt 0.703178 0.485388
s 1
usemtl Material.002
f 120/130/165 121/131/165 123/132/166 122/133/166
f 122/133/166 123/132/166 125/134/167 124/135/167
f 124/135/167 125/134/167 127/136/168 126/137/168
f 126/137/168 127/136/168 129/138/169 128/139/169
f 128/139/169 129/138/169 131/140/170 130/141/170
f 130/141/170 131/140/170 133/142/171 132/143/171
f 132/143/171 133/142/171 135/144/172 134/145/172
f 134/145/172 135/144/172 137/146/173 136/147/173
f 136/147/173 137/146/173 139/148/174 138/149/174
f 138/149/174 139/148/174 141/150/175 140/151/175
f 140/151/175 141/150/175 143/152/176 142/153/176
f 142/153/176 143/152/176 145/154/177 144/155/177
f 144/155/177 145/154/177 147/156/178 146/157/178
f 146/157/178 147/156/178 149/158/179 148/159/179
f 148/159/179 149/158/179 151/160/180 150/161/180
f 150/161/180 151/160/180 153/162/181 152/163/181
f 152/163/181 153/162/181 155/164/182 154/165/182
f 154/165/182 155/164/182 157/166/183 156/167/183
f 156/167/183 157/166/183 159/168/184 158/169/184
f 158/169/184 159/168/184 161/170/185 160/171/185
f 160/171/185 161/170/185 163/172/186 162/173/186
f 162/173/186 163/172/186 165/174/187 164/175/187
f 164/175/187 165/174/187 167/176/188 166/177/188
f 166/177/188 167/176/188 169/178/189 168/179/189
f 168/179/189 169/178/189 171/180/190 170/181/190
f 170/181/190 171/180/190 173/182/191 172/183/191
f 172/183/191 173/182/191 175/184/192 174/185/192
f 174/185/192 175/184/192 177/186/193 176/187/193
f 176/187/193 177/186/193 179/188/194 178/189/194
f 178/189/194 179/188/194 181/190/195 180/191/195
f 123/192/196 121/193/196 183/194/196 181/195/196 179/196/196 177/197/196 175/198/196 173/199/196 171/200/196 169/201/196 167/202/196 165/203/196 163/204/196 161/205/196 159/206/196 157/207/196 155/208/196 153/209/196 151/210/196 149/211/196 147/212/196 145/213/196 143/214/196 141/215/196 139/216/196 137/217/196 135/218/196 133/219/196 131/220/196 129/221/196 127/222/196 125/223/196
f 180/191/195 181/190/195 183/224/197 182/225/197
f 182/225/197 183/224/197 121/226/165 120/227/165
f 120/228/198 122/229/198 124/230/198 126/231/198 128/232/198 130/233/198 132/234/198 134/235/198 136/236/198 138/237/198 140/238/198 142/239/198 144/240/198 146/241/198 148/242/198 150/243/198 152/244/198 154/245/198 156/246/198 158/247/198 160/248/198 162/249/198 164/250/198 166/251/198 168/252/198 170/253/198 172/254/198 174/255/198 176/256/198 178/257/198 180/258/198 182/259/198
